<?xml version="1.0" encoding="utf-8"?>
<!-- Generator: Adobe Illustrator 25.3.1, SVG Export Plug-In . SVG Version: 6.00 Build 0)  -->
<svg version="1.1" id="레이어_1" xmlns="http://www.w3.org/2000/svg" xmlns:xlink="http://www.w3.org/1999/xlink" x="0px"
	 y="0px" viewBox="0 0 300 100" style="enable-background:new 0 0 300 100;" xml:space="preserve">
<g>
	<path d="M41.39,45.08h5.12v7.17h-5.12v26.72H31.16v-4.4H3.82c-1.3,0-2.34-0.39-3.12-1.18c-0.79-0.78-1.18-1.83-1.18-3.12V30.75
		H9.76V67.4h21.4V29.21h10.24V45.08z"/>
	<path d="M105.08,70.58h17.81v7.17H77.13v-7.17h17.71v-8.91h10.24V70.58z M119.82,48.15H89.92v4.3h30.92v7.17H83.99
		c-1.3,0-2.34-0.51-3.12-1.54c-0.79-1.02-1.18-2.39-1.18-4.09v-13h29.89v-3.28H79.69v-7.17h40.13V48.15z"/>
	<path d="M171.78,31.11c0.51,0.51,0.77,1.28,0.77,2.3c0,7.1-0.09,13.6-0.26,19.5c-0.17,5.9-1.04,11.89-2.61,17.97H175v7.17h-45.76
		v-7.17h12.9V45.29h10.24v25.59h6.86c1.23-3.82,2.08-8.5,2.56-14.03c0.48-5.53,0.68-11.98,0.61-19.35h-29.89v-7.17h36.96
		C170.5,30.34,171.26,30.6,171.78,31.11z"/>
</g>
</svg>
